<svg xmlns="http://www.w3.org/2000/svg" width="3000" height="3000"><path fill="#E1E1E1" stroke="#000" d="M111.389 221.188l25.629-5.914 19.715-12.814 14.786 1.972 14.786 4.929 21.686 5.914h18.729l9.857-6.9 4.929 3.943h26.615l11.829 2.957h18.729l15.771-.985 18.729-.986 18.729-1.972 5.862 9.939 11.324 19.203 19.244 32.631 8.914 15.115 31.767 41.229 27.395 37.041 44.342 55.791 35.011 31.031 8.362 7.412-16.265 8.872-6.408 10.351-29.572 3.449-44.851 15.279-28.587 17.743-16.265 33.516s-4.929 21.687-4.929 26.122-.986 48.302-.986 48.302l-1.971 17.743 8.871 28.587 3.45 59.638s-6.407 18.236-3.942 19.222c2.464.985 11.336 18.729 11.336 18.729l-16.758 9.364-7.886 5.914-5.915 19.223 2.465 10.35s-8.078 9.644-8.981 11.396l-5.141 9.972 10.672 9.683 2.347 12.815 2.119 10.726 4.405 9.975-4.929 16.758-4.929 5.914-15.51 1.65-8.12 13.315.958 16.578-20.7 16.758-3.943 10.844-13.801 13.8-17.743-.985-10.843-6.9-11.829 7.886-21.687-4.929-17.743 13.801-13.8 5.914-22.672-4.929-30.558-1.972-18.729.986-7.886-6.9s0-14.786-7.886-14.786-21.686-8.872-21.686-8.872l-8.872-18.729 2.958-15.772 6.9-16.757 5.915-21.687 9.857-9.857 6.9-17.744 4.929-19.715h-26.615l-4.929-12.814-2.957-30.558-2.958-37.459-4.929-51.258.986-25.63-9.857-7.886 2.957-29.572v-32.529l5.915-21.687 15.772-12.814-5.915-15.772s-8.872-19.715-8.872-23.657v-26.615l7.886-16.758 5.915-23.658 12.815-33.515 1.971-24.645 10.843-20.7 8.872-1.972 32.53-8.871 8.872-8.872-4.929-13.801-8.872-16.758-9.857-21.686-16.758-5.915-14.786 10.844-4.929 14.786-9.857 1.971-6.9-38.443 3.943-46.33-9.856-27.603z"/><path fill="#E1E1E1" stroke="#000" d="M226.721 988.097l43.373 20.701 35.486 9.857 21.687 11.828s15.772 5.915 25.63 10.844 40.415 19.715 40.415 19.715 20.701 1.972 29.572 6.9c8.872 4.929 31.544 14.786 31.544 14.786l6.9-22.673 12.814-26.615s16.758-33.515 21.687-34.501c4.929-.985 13.801-11.828 20.7-12.814 6.9-.985 25.63-12.814 25.63-12.814l5.914-23.658 28.587-7.886s28.587-19.715 34.501-19.715 32.529-13.801 40.415-15.771c7.887-1.972 35.487-19.715 35.487-19.715l11.829-22.673-1.972-17.743-12.814-14.786 8.871-11.829 16.758-4.929 28.587 2.957 11.829-2.957 25.629 1.972 20.7-4.929h20.701l9.857 2.957 15.771 7.886 20.701 10.844h11.829l14.785-19.715 7.887-17.743 20.7-31.544 21.687-37.459 16.758-32.529 7.886-10.843-1.972-29.572-5.914-4.929-19.492-2.635-42.78-7.502-27.431-6.621-40.278-14.196-37.224-11.749-23.044-6.584-39.666-18.147-13.563-5.511-37.459-30.559-20.333-8.26-27.013-14.887-23.319-15.247-29.881-25.68-13.241-8.689-18.303-12.011-16.265 8.872-6.407 10.35-29.572 3.45-32.137 10.948-12.715 4.331-17.802 11.05-10.784 6.693-10.475 21.583-5.79 11.933s-4.974 30.102-5.093 36.015c-.119 5.914-.822 38.409-.822 38.409l-1.972 17.743 8.872 28.586 1.134 19.593.963 16.645 1.354 23.4-3.977 13.61 11.369 24.341-16.757 9.364-7.887 5.915-5.914 19.222 2.465 10.351-12.815 21.193 9.365 9.857 2.957 12.814 5.914 20.701-4.929 16.758-4.929 5.914-15.771 2.957-6.9 15.772v12.814l-10.634 8.608-10.066 8.149-3.943 10.843-13.801 13.801-17.743-.986-10.843-6.899-11.829 7.886-21.687-4.929-10.646 8.28-20.896 11.436zm2014.863 124.453l-4.499-21.057 3.212-7.147 15.062-14.814 24.547-22.312s1.598-6.534 9.582-1.635c7.983 4.9 12.773 11.431 12.773 11.431l11.177-8.167 89.417 9.804-15.966-22.868 4.788-9.8v-17.966l-4.788-16.333-9.582-52.265s-4.788-9.799 4.79-35.932 14.37-50.632 14.37-50.632l119.754-40.832 11.178 4.9 28.741-45.729s20.758-21.235 20.758-4.899c0 16.333 3.189 22.867 3.189 22.867l31.936 1.633s9.584 55.53 6.386 68.598l5.123 5.124 61.938 1.407 1.598-8.166 12.772 3.267 1.6-17.966 3.192-24.498 20.756 1.634-1.596-9.801 36.721 1.635 11.179-17.967 35.128 4.9s39.921-14.701 49.497-14.701h9.58l6.387-4.9 12.774 4.9s-11.177 78.396-4.791 119.23c6.387 40.832 7.984 124.126 4.791 156.793-3.194 32.663-1.599 47.364-1.599 47.364s-28.738 34.296-19.16 60.429l-28.74 4.901s-1.595 26.133 4.79 26.133l-4.79 24.496s-17.568 0-9.583 14.701c7.984 14.699 6.387 32.666 6.387 32.666l-3.192 16.329-15.964 24.498c-3.194 4.899-12.774 14.701-12.774 14.701l-6.386 34.298-14.373-1.635-1.598-6.532-17.566-3.266s0 29.396-12.774 40.832l-12.774 11.433-4.788 9.799-493.392-60.429-55.885-3.267 22.615-52.21 13.922-38.129 8.693-14.081 7.051-10.029 4.264-17.696-.442-17.349-2.185-14.56 6.18-20.136.777-16.478-.79-17.696.602-16.823z"/><path fill="#E1E1E1" stroke="#000" d="M2543.524 1390.189l-65.306-9.938-53.595-5.852-23.396-2.554-170.038-19.288-104.756-2.861 2.71 10.021s3.688 8.726 3.04 16.266c-.651 7.542-12.168 9.804-11.29 14.808.339 1.937.631 7.885.596 14.741l7.546 1.007s8.823 9.881 4.157 12.476c-2.114 5.002-6.89 10.164-6.89 10.164l-6.582 3.971-3.043 2.144s-2.761 4.148-4.287 6.688c-.33.547-1 2.592-1.85 5.457-3.072 10.366-3.778 24.397-3.778 24.397s-8.575 13.376-15.569 17.687c-6.994 4.31-2.881 11.46-2.881 11.46s-4.607 5.94-10.815 10.234c-1.619 6.784-3.61 17.636-3.61 17.636s11.822 3.045 17.996 18.954c7.008 27.27.844 23.374 3.26 26.674 7.124-1.054 13.505 8.121 13.505 8.121l-12.446 6.916s4.553 3.755 6.893 2.872c2.343-.878 5.762 1.803 5.762 1.803l-1.855 3.171c.061 3.343-12.021 11.423-12.021 11.423l9.36 1.258s14.246 2.457 11.89 2.5c-2.357.043 34.029 25.096 38.862 31.698 2.981 14.903 19.423 17.486 19.423 17.486l41.455 15.889 57.365 15.872s16.882 4.478 38.861 3.244c21.979-1.237 66.4-3.566 66.4-3.566l3.246.886s-4.301 4.104-4.436 9.077l4.981 20.012c.257 14.215 4.698 5.013 4.773 9.193.076 4.184.062 3.346.182 10.039.121 6.688 5.711 11.609 5.711 11.609l25.876-2.981 3.914-.906c3.912-.911 18.126 3.019 18.126 3.019s8.111 14.075 14.103 7.436c5.992-6.64 8.556-14.539 8.556-14.539s3.127-.896 9.457 1.501c6.327 2.396 33.114 6.094 35.452 5.212 2.344-.875 14.035-6.108 14.035-6.108l4.669-2.598c4.667-2.591 51.146 4.096 51.146 4.096l2.961-10.094 3.914-.905 11.753-1.885 10.966-1.877-1.711-94.508s-1.211-23.398-1.271-26.744-4.184-14.149-4.184-14.149l-15.769.285-.106-5.857 25.704-15.521 9.487 3.172 1.467-5.878s3.23-14.967 5.779-26.401l-.531-2.02c.34-.061.683-.109 1.02-.174.67-2.992 1.271-5.633 1.721-7.527 2.193-9.242 5.661-34.402 5.661-34.402l.562-12.56-1.633-3.317 3.626-16.797 4.394-17.651 5.997-16.003s2.9-13.439 7.612-13.524c4.715-.085 11.114-18.278 11.114-18.278l-123.397-15.312zm-538.687 789.464c-2.948-17.17-31.286-96.697-57.774-153.535 0 0-.12-.259 0 0-10.016-21.494-18.917-42.392-23.213-52.611-15.644-37.219-11.832-74.433-11.951-87.214-.062-6.498 3.889-20.627 3.995-35.143.104-14.031 5.37-21.782 4.656-36.64-2.794-20.719-13.133-36.141-12.287-47.948-3.337-1.002-6.823-28.99 20.228-49.511 27.576-15.989 28.076-37.255 28.076-37.255l-23.654-1.135-6.737-4.854s-5.765-2.896-14.376-3.798c-8.613-.903-64.214-17.1-74.794-23.884s-27.723.259-27.723.259-4.752 2.995-4.541 25.607c.211 22.613 27.089 34.161 27.089 34.161l-21.896 10.037s.037 3.933 2.997 13.737c2.96 9.806.156 16.715-2.693 18.708-2.851 1.993-8.595 1.063-9.597-3.843s-7.841-20.575-7.841-20.575-7.646.071-14.329 1.117-13.199 19.788-15.994 27.681c-2.794 7.892 6.738 4.853 6.738 4.853s10.487-3.048 16.224-3.102 5.763 2.896 7.766 12.709c2.003 9.814-9.478 8.938-9.478 8.938l12.483 5.782-2.9 10.633-11.89 43.585-10.496 2.065-16.278-2.799s-2.924-5.872-11.537-6.774c-8.612-.903-16.241 1.136 1.058 10.806 12.849 7.185 16.671 7.942 17.786 7.854l-10.984 3.883s-13.364 2.09-19.046 8.042 11.601 13.658 11.601 13.658l.036 3.934c0 .229.024.487.058.768.019.164.052.35.082.53.02.116.034.223.057.344.047.254.107.525.171.807.014.053.022.103.035.156.071.312.154.638.243.978.001.016.014.03.015.047 0 .013 0 .021.013.028.915 3.427 2.618 8.113 4.129 12.452l.508 1.47.203.596c.23.684.45 1.345.657 1.986.051.161.104.317.152.474.213.668.414 1.316.588 1.918 1.977 6.864 7.712 6.81.101 10.814s-7.767-12.71-7.767-12.71-4.798-1.92-4.697 8.895c.102 10.813 15.433 14.605 15.433 14.605l3.916 9.797-13.393-.858s-.037-1.591-14.394-3.425c-12.017-2.574-1.949 13.196-1.949 13.196-3.646-2.461-21.784 2.384-21.784 2.384s6.452 17.784 9.33 18.74c2.877.956-9.934 7.571-9.888 12.486.046 4.916-22.11-1.52-22.11-1.52l-5.645 9.887c-5.645 9.885-19.938 14.936-19.938 14.936l13.439 5.775 13.355-3.074s6.671-2.03 10.505-1.083c3.832.949.063 6.882.063 6.882l-8.594 1.064-15.037 27.671 4.779-.045c4.779-.045 4.853 7.821 4.853 7.821s-8.658-5.82-14.236 10.949c-5.579 16.767 15.633 36.236 28.97 31.192 13.337-5.042 18.283 12.612 3.988 17.665-14.294 5.049-12.362 6.996-12.362 6.996.202 21.63 21.187 16.517 21.187 16.517l2.722-15.758s6.673-2.027 15.249-5.06c9.621-4.074 26.774-.389 5.863 13.712-17.078 13.925-15.984 28.666-15.984 28.666l17.115-9.991c7.089-4.139 11.102-3.353 13.377-1.019 3.22 3.304 2.957 9.71 2.957 9.71l2.722-15.758 11.396-7.973-5.764-2.894 7.519-13.837 24.165 4.055 3.604.601-7.547 10.888s5.91 18.627 10.652 14.648c4.742-3.977 20.085.798 20.085.798l22.97 2.734 2.076 17.68 2.905 3.905-1.766 15.749 14.385 4.782-.882 7.875 25.902 9.59c10.479-4.031 25.286-56.283 25.167-69.064-.12-12.782-12.942-54.941-12.942-54.941l1.659.083 14.602.745-3.814 1.021c-3.813 1.017 2.084 18.661 2.084 18.661l12.429-.116.072 7.865 5.856 12.729-11.435 4.041-.902 5.909 1.914 5.11 4.971 15.47 16.252-.151-.864 9.844-6.244 4.916 1.485 5.453-5.941 1.557 1.315 6.843-8.742 3.282c-2.846 1.992-2.921 13.985-2.921 13.985l2.921 10.159c3.814-1.018 16.34-4.673 16.34-4.673l1.486 15.577s3.737-5.099 21.036 4.571c6.494 6.883 1.987 10.228 1.987 10.228l5.942 1.558.849 15.746 14.749 2.169-3.715 12.462 47.332-9.275c.013 0-18.677-66.467-18.677-66.467l-1.732-3.939zm-69.793-182.63l7.994 17.434-7.994-17.434z"/><path fill="#E1E1E1" stroke="#000" d="M2380.72 1694.957s-76.834 5.729-100.747 1.545-117.209-31.576-122.797-42.378c-4.414-8.535-4.205-9.646-4.205-9.646l-35.479-29.9s-16.654-6.365-39.488-3.037c-22.06 3.216-109.058 7.737-114.932 8.039l-.107.001c-.134.013-.215.013-.215.013s-1.701 3.593-3.155 9.166v.013c-1.31 5.023-2.416 11.647-1.886 18.769 1.12 15.027 2.299 40.795-4.927 49.42-7.225 8.624-42.419 31.339-45.424 51.756-3.006 20.417 13.74 43.963 13.838 62.218l.1 18.255s-9.076 50.514-9.03 59.103c.046 8.59.37 68.724 9.788 81.565 9.417 12.842 79.437 188.087 90.594 234.745 2.365 9.895 3.168 9.649 3.168 9.649l57.109-3.488-1.113-13.954 30.139 3.08-2.129-9.654 11.426-.053-4.289-24.679s-11.426.053-17.682-4.213c-6.255-4.267-9.434-16.063-9.434-16.063s-3.108 1.088-5.205-2.124c-2.095-3.212-.062-11.812-.062-11.812s-4.212-10.72-7.346-13.928c-3.134-3.207 5.112-15.058 5.112-15.058s3.357 1.133 16.544-.84c.036-.012.073-.012.111-.019a195.05 195.05 0 0 0 5.099-.838c.099-.02.2-.036.3-.057.816-.145 1.66-.3 2.534-.467.131-.025.259-.048.391-.076.967-.186 1.965-.383 3.004-.594l.352-.074a305.74 305.74 0 0 0 3.577-.754c1.096-.237 2.214-.483 3.383-.747 29.049-6.58 39.445-4.48 39.445-4.48s10.306-15.081 18.541-29.08c8.234-13.999 15.511-12.959 15.511-12.959l83.044-10.054s-3.197-15.019-6.32-16.077l-3.12-1.06 10.316-12.936s-6.291-10.707-6.314-15.003c-.021-4.297-.115-21.479 2.955-30.083 3.069-8.604 6.104-23.653 6.104-23.653l6.176-10.766s-4.173-3.2-8.316-1.035c-4.143 2.166-7.311-7.482-7.311-7.482s-4.154.019-10.38 1.122-10.38 1.123-15.574 1.147c-5.195.024-1.074-6.439-1.074-6.439l-.057-10.737-8.327-3.181-1.092-9.661 9.297-9.707s-1.048-2.144-5.229-6.419c-4.18-4.276-7.352-14.999-7.352-14.999l1.01-5.374 3.069-8.604 2.042-6.453 3.081-6.457-10.438-9.615 13.439-11.875-1.078-7.512 44.582-15.242-5.339-26.821 7.286 3.188s33.407 30.984 51.037 25.532c17.627-5.452 7.173-18.287 7.127-26.878l-.047-8.591-5.224-5.345-.081-15.032 13.527 4.231s8.274-6.483 8.246-11.852c-.028-5.369 13.473-5.432 13.473-5.432l-1.078-7.512 16.607-2.225s-9.445-18.208.924-21.479l-.005.006zm-444.409-542.085s-7.677-36.232 6.977-56.451c14.66-20.227 1.137-61.649-1.608-73.958 0 0 .762-18.281 11.758-41.134l-2.666-30.397s8.029-41.753 21.771-48.791c13.737-7.027 11.904-1.755 31.146 3.518 19.236 5.277 23.814 9.672 23.814 12.305 0 2.648 18.321 20.229 18.321 20.229s19.235 5.272 20.153 9.667c.915 4.398 32.979 40.447 42.135 43.082 9.164 2.641 12.83 11.427 12.83 11.427l14.655 8.791 25.649 14.074s11.902 4.395 24.723 5.273c12.841.878 17.407 1.754 34.809 11.426 17.417 9.672 24.749 4.395 28.404 9.672 3.666 5.281 14.655 10.552-4.588 26.374-19.222 15.83-2.099 30.181-3.01 34.572-.922 4.395-2.432 13.938-3.104 25.06 5.498 13.191-2.958 37.338-5.714 46.134 0 0 9.325 37.616-7.162 57.833-16.486 20.226-16.068 37.972-16.068 37.972l-28.641 68.19-64.726 1.146c-5.487.098-57.467 10.458-63.878 14.853-6.416 4.395-32.126 5.7-38.53 3.943-6.416-1.76-15.473 2.189-23.265 2.293-10.662.142-25.493-.534-31.907-2.293-6.411-1.76-19.941-3.834-27.277 2.317-7.322 6.153-13.179-12.438-13.179-12.438s-2.063 13.512 10.763-23.424c12.827-36.928-3.512-31.97-3.512-55.707 0-23.747-4.226-29.786-3.308-43.852.918-14.066 9.58-39.484 12.33-51.8 2.749-12.298 1.905-29.906 1.905-29.906z"/><path fill="#E1E1E1" stroke="#000" d="M2121.49 1405.533s-1.425-11.158-1.425-15.639c0-4.479 5.598-5.696 5.598-5.696l5.679-8.384-1.497-5.874-3.41-20.243-42.197 5.453-34.436 9.486-126.793 4.906-55.782 3.957-14.604 1.035-3.588-8.32-5.384-1.28-19.14-19.2-17.943-14.721-15.123 5.474-25.548 9.247c-.599 2.561.598 7.681.598 7.681s-7.775 2.56-9.57 5.119c-1.794 2.561-7.177 19.2-7.177 19.2s2.99 3.841 6.579 10.241 5.98 10.88 10.767-1.92c4.785-12.801 11.364-3.199 14.354-1.92 2.99 1.28 10.767 2.56 10.767 2.56l10.168-6.399c10.167-6.4 14.952-3.2 16.148 0 1.196 3.199-8.972 7.04-8.972 7.04s-19.738 31.36-22.13 37.761c-2.393 6.401.598 7.041 2.392 7.681 1.795.64 8.375 2.561 10.767-1.92 2.394-4.48 1.795-5.761-.598-12.801s11.963-8.961 14.355-4.48c2.392 4.48 9.569 18.561 9.569 18.561s13.757 19.841 13.757 24.32c0 4.48-11.963 4.48-11.963 4.48-13.159-1.92-3.588 7.68-3.588 7.68l10.167 14.721v19.2s-2.99 1.28-11.962 14.079c-8.972 12.802 2.393 11.521 2.393 11.521s-1.196 5.119 11.227 10.24c12.422 5.119 10.903 23.681 10.903 23.681s-5.981-.64-10.903 2.56c-4.923 3.199 10.903 14.721 10.903 14.721s2.392 10.241 4.785 16.641c2.392 6.401-.598 10.24-3.589 10.24s-2.99-1.919-7.775-15.36c-4.785-13.439-13.757-6.399-13.757-6.399-16.148 3.84-16.148 59.52-16.148 59.52 8.373-1.919 21.291-2.492 21.291-2.492l45.104 18.36 11.571 1.937 22.728 6.352s18.941 3.674 24.749 8.958c3.716 3.891 22.832.918 22.832.918l.197-31.996 5.913-26.423 9.397-2.208 5.482-.286 7.524-.12 24.113.903 10.568-1.776 46.365-3.955 28.779-3.364s10.806-9.958 12.675-13.561c.809-1.56-8.012-1.808-8.012-1.808l-3.441-3.9 4.379-2.214 8.067-4.702-10.201-7.743-4.428-.938 1.438-6.742-2.395-7.679-6.578-20.657-7.178-4.944-5.418-5.046-1.16-5.194 4.182-11.057 11.404-11.618-2.428-8.686 9.277-8.149 8.214-10.184 2.245-5.989-.597-5.119s4.917-12.858 5.515-15.418c.6-2.561 2.609-10.304 11.232-15.942 8.972-3.2 12.357-16 12.357-16l-5.094-8.957-7.542-1.011zm17.9 1480.344s-13.08-5.564-15.853-52.46c-6.255-18.664-14.205-112.94-29.526-147.834-8.855-30.917-39.182-188.761-39.182-188.761l2.232-37.867s2.736-60.029-9.277-110.801c-12.012-50.771-29.03-126.43-29.03-126.43l-2.885-7.267c11.012 1.99 57.419-2.439 57.419-2.439l-1.006-14.61 16.544 2.415 13.888.522-2.225-9.683 11.757.624-4.747-26.481s-18.756.449-21.76-9.507c-1.502-4.977-4.565-8.599-8.391-14.126-2.045-2.955-2.367-8.915-4.582-14.121-2.576-4.632-7.21-15.483-2.661-20.473 4.55-4.989 18.281-4.115 18.281-4.115 14.015-.61 50.675-8.441 58.678-9.632 0 0 26.546-37.531 29.55-39.523 3.004-1.99 70.639-9.16 74.545-10.029l7.84-1.742 2.001 11.449 11.261 5.226-6.757 5.228 9.01 2.988-4.506 5.973.749 7.467-5.255 5.227 5.255 4.479-6.755 16.427 9.008-7.467 1.503 5.227s15.014-9.707 13.515-5.973c-1.502 3.733-11.263 11.198-11.263 11.198s-6.008 7.467-1.502 7.467 3.755-3.732 6.008-4.479 6.757 2.24 3.755 5.227c-3.006 2.986-5.259 7.466-5.259 7.466l-6.756 2.239.749 10.453h4.507s-2.252 5.228 2.253 5.228c4.506 0 11.263-4.48 11.263-4.48l1.502 2.987s-3.006 5.227-6.757 7.467c-3.755 2.24-4.506 11.198-4.506 11.198l5.255 2.241v15.678h7.508s8.26 12.693 10.512 4.48c2.253-8.213-.753-5.228-.753-5.228l6.757-1.493s.753-7.467 6.757-7.467c6.008 0 5.255 2.987 10.512 5.227 5.255 2.24 8.257 4.479 8.257 4.479l4.508-1.493s3.002 5.226 3.002 8.213-2.253 11.947 2.253 7.466c4.506-4.48 10.512-9.705 10.512-5.226 0 4.481-2.257 14.187-2.257 14.187l3.002.746 12.765-5.226 4.506 5.973s0 5.973-3.751 7.466c-3.755 1.494 0 3.732 0 3.732l3.751 2.988 3.751 11.2 4.506 1.493-5.252 9.706 1.501 4.48-.75 20.159-6.007 5.973v8.213l2.256 8.961-.753 9.705 6.008 6.719-14.265 5.229 6.004 5.226 8.261.747 6.007 2.24-3.754 5.973 5.255 5.227v2.987l2.253 5.973-8.261 13.439 3.755 6.72-.75 5.227-2.252 5.226-9.759 5.226 2.253 6.721-3.003 16.426-5.258 5.227 4.507 5.228s3.752-2.24 6.757 2.987c3.003 5.225-.752 10.452-.752 10.452s6.004-.749 6.004 1.493c0 2.24-7.508 14.934-7.508 14.934l-4.506 2.986-15.767 5.974-.749 8.96s-6.757 5.227-6.004 10.453c.749 5.229-3.755 12.693 3.002 11.199 6.757-1.493 13.515-.745 13.515-.745l3.003 10.454 5.255 11.945.752 11.201-3.754 7.466s-8.261 5.975-8.261 12.692c0 6.719-4.506 9.704-1.502 14.934 3.006 5.227.753 11.947.753 11.947l-4.506 6.718 1.502 14.186-9.01 3.734.749 9.703 6.008.745 6.004 11.947-9.009 2.988-3.003 11.198 8.261 4.481-8.261 5.975-8.257.745-3.006 17.171-11.262 7.467 2.252 3.732h3.002l6.008 13.441-5.255 2.985-6.757 3.732 11.263 6.72s6.757 2.24 3.755 6.718c-3.006 4.481-6.757 11.202-6.757 11.202l1.5 8.959 3.002 8.213-10.51 6.72-3.755 9.705 12.015 11.946s6.005 2.986-2.253 4.48c-8.26 1.493-15.017 1.493-15.017 1.493l-4.506 9.704v5.973s-16.518-1.494-9.759 3.734l6.757 5.226.749 5.974 4.506 3.733 3.006 5.225-3.755 6.72-4.506 1.493 11.263 8.215 3.002.745v4.48l-10.512 6.72-2.252 17.174s-3.756 5.973-15.015-6.72c-11.263-12.692-9.762-2.987-12.765-4.48-3.002-1.494-15.014-5.974-15.014-5.974l-2.252-7.466-6.008-2.239s-20.271-27.625-31.531-14.186c-11.261 13.438-12.763 14.931-13.516 17.171-.753 2.241-9.761 17.174-9.761 17.174s-12.763 20.162-11.261 31.361c1.502 11.2-13.514 22.399-32.282 14.186-18.769-8.213-13.512-7.466-13.512-7.466s-2.815 16.756-11.998 16.811z"/><path fill="#E1E1E1" stroke="#000" d="M1924.112 1369.501l-5.979-11.94 6.083-6.367.398-4.158 1.672-4.148 1.742-5.252 2.855-7.7c-.159-2.736 3.755-17.943 1.58-26.862-2.701-11.074-6.777-15.896-6.777-15.896s-1.878-42.287-3.979-45.135l.375-13.241c-.215-1.893 2.751-6.434 2.55-9.32 0 0 7.611-26.956 7.301-27.124 0 0 7.488-37.14 4.377-39.483-4.201-3.164-26.181-.213-51.988-3.694-25.808-3.48-40.755.509-40.755.509s-7.89 4.65-12.091 5.283c-3.082.465-.736 1.431-4.655 2.1l-3.098 1.795-5.543 1.448-7.294 2.037-7.577 6.365s-2.875.188-14.278 7.783c-1.304.868-6.2 1.826-7.692 2.837-9.317 6.31-20.602 20.337-32.827 23.232l-.096.228c-2.601.552-1.691 3.981-4.204 3.934-2.814-.054-6.968 5.789-6.968 5.789l-7.194 4.722s-27.706 23.503-26.506 27.3c1.201 3.797 14.018-2.802 14.018-2.802s7.493 2.056 11.395 4.903 13.727.308 12.826 4.421c-.899 4.114 3.932 22.229 3.932 22.229s-11.072 14.22-13.474 14.854c-2.4.633-36.342-9.258-36.342-9.258s-21.248 12.978-16.446 21.839c4.801 8.86 14.549 8.087 14.549 8.087s14.492 9.625 19.894 10.259c5.401.632 20.182 12.697 24.083 17.128s20.455 1.564 20.455 1.564l7.465 7.972 23.299-8.059 17.372-6.661 8.43 8.015v-.342l28.654 26.247 5.383 1.28 4.66 7.531 61.229-3.629 9.186-.62zm-29.57 704.792s10.855 41.376 11.598 49.164c.743 7.787-3.244 43.186-12.157 58.764-8.911 15.577-11.883 16.356-11.883 16.356s-34.909 32.714-41.593 52.185c-6.686 19.472-18.568 33.492-18.568 33.492l-9.654 11.683s-10.398 14.8 2.229 38.944c12.626 24.145 25.252 48.289 23.023 73.213s-23.768 45.175-8.913 59.195c14.854 14.02 26.737 31.934 28.966 35.829 2.229 3.895 11.885 62.31 11.885 62.31s31.193.779 42.335 19.471l-5.941 12.463 5.941 10.125s-5.941 10.905-3.714 14.02c2.229 3.116 8.913 5.453 8.913 5.453l-11.885 20.25s-22.282-13.24-22.282 7.011.743 10.905.743 10.905-10.397-.779-8.913 3.895c1.487 4.673 6.685 16.356 6.685 16.356s-17.824 3.114-10.397 13.24c7.427 10.125 11.885 8.567 11.885 8.567s-.743 3.896 3.713 6.23c4.456 2.336 6.685 0 10.398 2.337 3.713 2.339 20.054 21.81 20.054 21.81l9.654 13.239-13.369 13.24-9.654 2.338 5.199 7.788-6.685 11.684 9.654 13.24 6.686-2.338 14.11 3.896 13.37 3.114 18.567-5.451s11.142-6.23 9.654 0c-1.484 6.229-9.654 12.461-9.654 12.461l3.713 12.463 12.626 6.23 8.17 3.116.743 18.692 13.37.781 1.486-15.58 12.626 1.559-2.229 10.125 3.714 7.011-5.198 14.02-5.2 15.577 10.398 2.339 6.685-3.116 32.681-1.558.742-10.905s14.113-3.894 11.885-3.114c-2.228.779 2.972-7.788 2.972-7.788l6.685 14.798 31.195 11.683 8.912 8.568 17.082-.78 2.971-8.567-11.885-13.24s-24.511-158.111-31.195-171.352-46.049-198.611-41.592-207.958c4.457-9.345-2.229-112.937-2.229-112.937l-28.224-129.46-41.845 7.306-5.688.651 3.715-12.461-14.112-3.116-1.485-14.799-5.941-1.558s6.685-14.8-23.024-14.8l-1.486-15.577-16.34 4.673s-4.456-21.808-4.456-18.691 4.456-5.453 4.456-5.453l9.655-3.894-2.229-6.23 5.941-1.558-1.484-5.453 8.912-7.787-1.804-6.972-16.253.151-6.884-20.581 5.632-7.647 6.704-2.302-5.929-20.595-12.428.117-3.847-19.682-10.684-.828z"/><path fill="#E1E1E1" stroke="#000" d="M1732.109 2140.567l-.696 20.214h-6.971l-12.547-4.879-11.849-2.092s-4.88-1.394-6.273 1.395l-4.183 8.364s4.879 0 8.364 4.879c3.485 4.88 5.576 4.88 6.273 7.667.697 2.789 3.485 6.273 3.485 9.759v6.97l-4.183 3.485-4.879-7.667-13.243-.697 1.394 9.062s-1.394 0 2.091 3.485c3.485 3.484 10.456 8.364 10.456 8.364h9.062l3.484-7.667 2.092-5.576 9.061-2.788h4.183l8.364-2.788s-3.485 3.484 0 12.546-2.091 18.123-2.091 18.123-2.788-6.97-3.485.697 4.879 11.152 4.879 11.152l11.85 6.97 12.547 6.971 9.758 1.394 2.788 7.667s-13.243-.696-13.94 2.092-.697 10.455-.697 10.455c2.614 1.395 6.187 2.266 6.187 2.266v2.701l-.263 4.36-3.327 3.819-3.327 7.023-.246 8.502 2.095 5.299 5.298 1.602 4.683-1.725 1.232 2.957-1.849 4.929s-8.009 9.857-8.502 9.857-8.009 6.038-8.009 6.038l-4.066 3.08-6.284 4.189-2.834 2.834-5.175-6.407v-7.763l-6.654-9.118-4.806-3.696-.862-.986-5.421.247-2.465.369-2.588 3.081-1.725 6.16-.493 5.792-.123 3.573s0 2.218-1.479 2.711c-1.479.492-4.56 2.71-4.56 2.71l-1.479 3.82s-.739 4.189-.246 4.929 2.711 8.994 2.711 8.994l1.479 2.834.369 4.189-3.326 2.096-3.943 3.203-5.791 2.711-6.654 1.479-.744 8.682v3.485l-9.758 6.272-6.273-4.182-6.273-1.395-2.788-5.576 1.395-4.182 5.576-2.091 11.152-6.273 2.788-10.455-4.879-3.485-5.576-2.091h-7.668l-6.273 5.576-.696 8.364-4.88 6.97-6.272-3.485-6.971-4.879s-6.273 0-6.273 4.183v9.062l-3.485 4.182-7.667-.697-8.364-.697-20.214 3.485-8.364 8.364s-9.758 6.971-9.758 9.759v13.243l22.305 1.395-4.879 6.272s7.667 5.576 10.455 8.364 10.455 6.273 10.455 11.152 4.183 13.244 4.183 13.244l8.364 9.758-4.879 9.062h-7.668l-7.667-12.547-11.152 14.638-4.183 17.426 25.094 13.94 11.849 3.485-20.214 7.667s-11.731-6.117-14.694.33c-.807 4.68-2.997 17.8-1.603 23.376s3.668 13.305 3.668 13.305l11.235 3.417 8.364 6.273s20.214 1.394 26.487 3.485c6.272 2.091 25.093 2.787 25.093 2.787l11.85-3.484 3.484 16.729 12.547 23.002 9.062-1.395 2.091 10.455 9.759 7.668 15.334 4.182s-2.788 8.364 7.668 8.364c10.455 0 18.819-2.091 18.819-2.091l13.94 1.394 4.183 16.729 2.788 11.85v4.183l-7.668-10.455-13.94 2.787 6.273 5.576.697 9.062s1.394 9.062 1.394 12.547-4.182 12.546-4.182 12.546l6.97.697 6.273-9.758 3.485-7.668 5.576 14.638v13.94s7.667 2.788 11.152 3.485 8.364 2.788 8.364 2.788l2.091 8.364-6.97 7.667-2.789 3.485s0 7.667 2.789 11.152c2.787 3.485-.697 0 4.879 6.273 5.576 6.272 4.879 8.364 8.364 9.062 3.485.696 4.879 2.091 7.667.696 2.788-1.394 9.062-5.576 9.062-5.576l6.273-6.272 10.455-4.183 10.455-2.091 5.576-6.971 8.364-14.637 6.971 6.272 8.364 4.88 4.879-9.759 4.183-6.273-6.33-5.437-3.678-3.505-7.673-6.741-2.798-6.287 3.793-5.193 8.404-3.075-6.585-18.191 8.211-2.09-.771-12.552 2.677-6.478 4.182-2.792 5.738-.019 10.315 3.955 11.884-20.25-8.912-5.453.613-7.078 3.1-6.941-5.941-10.125 5.941-12.463-6.933-7.874-14.991-7.833-20.411-3.764-1.62-9.64-3.615-20.773-4.58-24.026-4.274-11.387-9.982-13.75-10.304-12.037-5.104-5.214-5.571-7.427-.885-7.764 5.501-17.463 3.595-8.791 4.903-19.062-1.669-22.54-4.473-14.901-13.819-29.899-5.34-10.69-3.909-15.95 1.363-12.319 2.595-5.856 11.467-13.981 7.964-12.076 7.345-15.182 6.515-14.03 11.757-15.849 10.535-11.868 14.233-14.373-14.056-5.563-11.63-4.306.883-7.874-14.385-4.783 1.766-15.748-2.905-3.905-2.076-17.681-8.763-1.043-14.207-1.691-10.679-2.206-5.607-.021-6.697 1.454-7.754-14.675 7.547-10.887-27.77-4.655-7.519 13.837 5.764 2.895-11.397 7.972-2.721 15.758-5.223-9.536-12.565 4.648z"/><path fill="#E1E1E1" stroke="#000" d="M1595.919 2553.207l-.986 12.08v11.83l-6.407 8.871 6.9 12.322 6.407 5.914s-1.479 9.857-3.942 10.843c-2.465.985-4.437 1.479-7.394 1.479s-11.829-9.364-11.829-9.364l-12.814-5.914-9.857 10.843-4.929 10.843s-3.45 11.336 1.972 12.814 10.843-.492 10.843-.492l4.437-10.844s11.828-2.957 14.293-2.957c2.464 0 0-1.479 6.407 8.379s2.957 9.365 2.957 9.365l-4.929 9.364-10.843 5.914s-1.972.985-3.943 1.972c-1.971.985 1.479 13.308 1.479 13.308l1.972 13.308 6.407 9.857 4.437 7.393-3.943 5.915-12.321 2.464-12.322-1.971-9.857.985.986 12.814-.493 8.872-8.379 6.899-20.208 4.929-29.079.493h-29.572l-27.601 3.942-17.744-.985-11.828 1.972v4.929l-9.857-.493-7.394-1.971-12.814.985-14.294-2.464-7.886 7.393-6.899 15.771-10.351 12.322-8.379 11.829 1.479 6.899-3.943 2.465-5.914.493-5.915 7.393-6.407 6.407-1.972 3.943-6.899 3.45-13.801-1.972-8.872-3.943-8.378-2.957h-20.701l-8.871 1.479c-2.958.493-13.801 5.422-13.801 5.422l-10.351 2.957-24.644.493-17.743-.985-6.9 4.436-16.265 1.479-4.929-10.844-4.929-9.364v-18.236l-4.929-14.293-4.929-10.351 5.915-11.828.985-8.872-1.972-10.351 6.9-8.871-2.957-11.336-6.408-9.365 12.322-9.857.493-8.871-13.308-13.308 3.45-11.829 17.25-10.351s7.886-8.379 9.857-6.899c1.972 1.479 5.915 3.942 5.915 3.942l13.307-6.407.493-9.364 8.379-1.972 5.422-10.35 6.9-16.266 3.942-8.871-2.957-14.293-9.857-13.308v-37.951l4.436-9.857 12.322.985 16.758.986-5.915-18.236 7.886-7.887 10.844-9.364-.493-13.8v-12.322l5.915-5.422v-13.8l5.914-11.829 8.871-5.914 6.408-3.943 10.35-5.914-3.942-5.422-5.915-5.915 8.379-8.379 2.465-10.843 1.479-14.786 2.957-7.394 12.322-9.857 1.971-8.379-10.35-8.871-1.479-17.251v-13.8l41.894-.493 28.094.985 21.193-.985 1.972 11.829-3.45 17.743-10.351 19.715s-4.436 9.364-2.464 10.351c1.972.985 42.387 6.9 42.387 6.9l17.743-3.943 30.559 13.308s0 10.843.492 15.771c.493 4.929 2.958 9.364 2.958 9.364l15.771 9.857 14.293 1.972 11.829-9.857 10.351-2.957 17.251-5.915 8.871-16.757 8.379-5.915 9.364-3.942-1.972-14.786 7.887-16.758 6.407-21.687-3.45-11.336-.493-19.715 4.436-16.758 3.943-6.407 3.45-13.308-4.436-22.179 2.957-7.887 11.336 2.465s10.843 3.943 10.843 10.843-3.45 15.772-3.45 19.715c0 3.943-4.929 25.63-4.929 25.63s-6.407 15.279-6.407 18.236 3.943 13.8 7.394 19.222 18.236 14.786 18.236 14.786l14.786 9.364 7.785 8.944 7.797 8.956-.872 11.366-3.485 4.183-10.158-.905-5.873-.489-20.214 3.485-10.979 8.189-8.63 9.444 1.485 13.732 8.278.517 14.026.877-4.879 6.273 8.223 6.361 7.413 5.948 2.966 2.536 4.299 12.857 10.557 14.815-4.879 9.062h-7.667l-2.582-4.225-5.086-8.322-11.152 14.638-2.601 10.839-1.581 6.587 12.932 7.185 12.161 6.756 11.85 3.485-8.282 3.142-11.932 4.525-6.754-3.021-6.837.031-2.551 7.67-1.108 6.887 1.809 23.038 6.804 5.826z"/><path fill="#E1E1E1" stroke="#000" d="M1730.654 1866.775l-.986-1.971-1.231-.247-6.342 2.33s-11.829-.492-14.787-.492h-9.857l5.915-21.194 4.929-13.307s-19.715-6.9-22.18-6.9c-2.464 0-33.022 3.45-33.022 3.45s-14.786 2.957-20.7 3.942c-5.915.986-15.771.493-15.771 3.943s4.436 18.729 4.436 21.687c0 2.957-6.407 9.857-10.844 9.857-4.436 0-55.694-4.929-55.694-4.929s-17.743-1.972-17.25 1.972c.493 3.942.985 20.7.985 20.7s.986 8.379-3.942 8.379h-8.379s-11.829 6.407-11.829 13.801c0 7.393-.493 14.786-.986 24.15-.492 9.364 7.394 15.771 7.394 15.771s-6.407 4.437-7.394 6.407c-.985 1.972-10.35 5.422-12.814 5.915-2.464.492-9.857-3.45-9.857-3.45s-.492-15.772-2.464-18.729 0-22.672 0-27.601-2.465-17.251-3.45-19.222c-.986-1.972-3.943-8.872-4.436-10.844-.493-1.972-1.479-13.308-1.479-13.308l-11.336-3.942-12.321 9.857s-3.943 15.279-5.422 18.236-13.801 17.25-13.801 17.25l-25.136 18.236-7.394 12.322-5.824 4.466s-28.283 10.768-33.112 13.771c-5.109 3.176-27.601 16.757-31.051 19.222-3.45 2.464-19.421 16.644-22.871 23.544-3.45 6.899-13.602 14.9-15.573 22.786s-4.436 25.63-5.914 31.544-6.408 31.051-6.408 31.051-.492 14.786-3.942 17.743-15.279 9.364-15.279 9.364l-8.379 10.351 5.915 27.601s5.914 3.45 5.914 5.422-3.45 13.308-5.914 17.743c-2.465 4.437-3.943 14.294-2.465 21.194 1.479 6.899 4.929 7.393 9.857 15.771s8.379 16.265 10.844 20.701c2.464 4.436 7.886 3.449 9.857 9.364 1.971 5.914 6.407 7.393 3.942 14.293-2.464 6.9-7.393 16.265-9.857 21.687-2.464 5.421-7.393 13.8-7.393 13.8l6.407 15.279 20.691-.243 38.467.355 25.515-.303 8.251-.477s.494 19.027-.337 23.302-6.353 13.052-8.604 17.341c-2.252 4.288-5.335 10.083-6.14 12.37-.805 2.286-.184 7.038.23 7.128.413.09 9.077 1.648 12.586 2.206s19.672 3.037 19.672 3.037l13.536.308 13.151-2.923 10.972 4.778 13.479 5.869 6.107 2.66s-.318 16.188 1.566 20.662c1.884 4.475 7.997 8.296 7.997 8.296l23.952 8.008 11.828-9.857 27.602-8.872 4.851-13.326 10.657-10.043 11.107-3.246-1.972-14.785 12.725-37.748-4.292-30.18 6.354-18.325 5.925-14.054-.011-13.055-2.957-14.786 2.957-7.886 15.89 2.744 8.166 9.109-4.954 18.193-3.171 18.857s-2.464 10.433-3.825 13.9c-1.36 3.469-3.775 18.488-3.775 18.488s5.798 14.669 8.169 16.944 19.431 14.5 19.431 14.5l11.879 7.523 15.407 16.681 4.355-1.529 8.19 5.75 6.273 3.485 4.879-6.97.697-8.364 6.273-5.576h7.667l5.576 2.091 4.879 3.485-2.788 10.455-4.524 2.545-7.848 5.122s-6.099.871-3.311 6.447 6.622 5.402 6.622 5.402l6.272 4.183 9.759-6.273.744-12.167 6.653-1.479 13.062-8.01-1.849-7.023-4.555-15.84 8.063-5.769.94-11.269 3.965-9.416 9.454-.094 12.845 12.232 3.833.349s-5.306 1.153-2.265 8.809c2.648 6.669 5.918 3.747 5.918 3.747l12.951-9.335 7.757-6.441 6.153-7.389 1.848-4.929-1.231-2.957-4.683 1.725-5.298-1.602-2.095-5.299.246-8.502 3.327-7.023 3.327-3.819.263-7.062-6.187-2.266-.89-10.678 6.273-2.704 9.254.835-2.788-7.667-9.758-1.394-8.557-4.754-9.252-5.312-9.076-6.288-4.553-12.802 5.124.925 3.735-8.342-2.516-18.318-6.97 1.219-13.243 2.789-2.092 5.576-3.484 7.667-10.107 1.22-12.372-10.979-.522-11.152 13.243.697 4.879 7.667 4.183-3.485-1.17-11.436-7.284-11.269-9.669-6.571 4.887-9.254 5.568-.504 11.85 2.091 19.518 4.879.193-5.608.503-14.605-1.971-1.473-13.694 7.66 3.279-13.188 8.961-12.144 10.635-10.596-1.465-6.708-26.539 5.317-1.605 9.299-1.115 6.459-8.461.282-6.3-2.3-4.755-5.693-1.671-8.806 5.226-6.391 13.805-5.272.223-5.689-4.552-6.423-10.432-.084-11.868-3.693-9.157-8.776-4.755-13.733 2.696-10.229 6.122-6.895 6.333.383-3.221-7.474-6.411-.302 10.456-19.243 4.58-8.429 8.595-1.063.229-6.795-10.798.996-13.355 3.073-13.439-5.775 7.777-3.717 10.34-8.535 4.088-6.652 3.378-5.917 13.189 1.928 6.857-.31 3.536-5.505 5.119-4.915 1.008-2.216-7.043-18.689 19.073-5.096-3.201-8.729 5.209-4.252 17.047 5.92 13.392.858-5.764-8.811-11.37-5.997-4.705-12.694 5.955-8.998 4.086 9.975 1.307 4.604 4.675-.517.501-2.758-4.667-12.352-5.305-19.106-4.868-4.648-5.55-1.652-1.095-1.297z"/><path fill="#E1E1E1" stroke="#000" d="M1807.714 1646.036l-53.09.538-82.803 2.957-56.188-2.957-48.301-13.801-22.673-7.886 3.943 27.602-3.943 20.7 3.943 37.458v11.829s-21.687 12.814-27.601 12.814c-5.915 0-37.459.986-43.373 1.972s-15.771 3.943-23.658 8.872c-7.886 4.929-11.828 20.7-11.828 25.629s3.942 24.644 6.899 32.529c2.957 7.887 9.857 34.502 9.857 34.502l8.379 24.15 11.336 3.943 5.578 18.388 5.592 17.406-1.552 16.535 1.483 26.676.728 10.697 14.033 1.933 13.418-10.63-6.179-12.636 1.515-31.469 10.608-10.49 12.086-1.575 2.327-6.106-2.23-24.104 40.652 3.523 26.808 2.387 17.4-10.939-3.998-17.908-.051-4.996 12.495-.813 39.506-6.064 17.987-3.154 21.472 8.347-10.844 34.501 11.804.032 22.371-1.796-2.819-6.111 29.432-10.892-15.804-6.039-11.796-13.298 17.818.077 7.061 5.917 15.407 4.192 10.496-2.064 14.79-54.218-12.483-5.783 8.377-4.053-1.729-15.554-12.907-.971-15.581 3.615.103-4.4 7.82-20.03 6.149-11.175 16.842.372 11.254 24.825 8.216-2.781.118-18.18-2.454-11.892 18.411-9.515-19.118-15.682-6.396-19.023 4.885-25.933z"/><path fill="#E1E1E1" stroke="#000" d="M1544.66 1624.887l-14.786-3.942-13.801-14.786-37.458-17.743-28.586-15.772-25.63-18.729-16.758-18.729-15.771-25.63-10.843-15.771-18.729-15.771.986 39.43 2.957 23.657 8.871 8.872s3.774 14.089 9.688 18.032c5.915 3.943 14.955 3.654 9.041 13.512-5.915 9.857-18.376 31.865-18.376 31.865l-13.168 24.322-26.615 26.615-14.786 24.643-19.715 27.602-10.843 15.771s-2.957 17.744-2.957 21.687c0 3.943 9.857 37.458 9.857 37.458s14.786 35.487 14.786 39.43c0 3.943 11.828 34.501 11.828 34.501v15.772l-1.971 9.857 32.529 13.801s19.715 23.657 17.743 29.572c-1.972 5.914-6.104 21.03-6.104 21.03l37.155-16.595 7.394-12.322 16.538-11.998 23.343-25.953 4.478-15.771 12.321-9.857-8.379-24.15-10.063-35.063-6.022-25.851-1.753-12.758 8.354-14.501 5.375-6.954 9.905-2.771 9.982-3.516 47.731-2.829 26.192-12.076-1.264-23.836-2.68-25.451 3.943-20.7-3.939-27.604z"/><path fill="#E1E1E1" stroke="#000" d="M1680.312 1302.138l-15.391 10.269s-5.914 26.615-9.857 26.615-10.843 24.644-16.758 27.601c-5.914 2.957-4.929 15.772-4.929 15.772l18.729 33.515s4.929 14.786.985 14.786c-3.942 0-18.729 2.958-24.644 3.943-5.914.985-46.33 1.972-46.33 1.972l-28.586 21.687-2.957 17.743 8.871 26.615 2.957 24.644-5.914 38.443-7.886 12.815s-.985 16.757-2.957 20.7c-1.972 3.942-8.717 23.567-8.717 23.567l7.73 2.062 39.337 12.647 31.637 9.039 56.188 2.957 60.159-2.148 55.176-.922 20.337-1.609 1.59-17.064 3.652-32.613 10.035-12.107 11.855-1.008 5.359 13.698 2.787 7.695 6.65.819-.656-10.766-3.918-14.166-7.63-6.49-5.954-7.633 12.016-4.9.582-8.996-5.042-9.665-8.514-4.968-5.846-2.973-2.788-4.182-7.342-4.335 10.861-15.188 7.096-7.474v-19.2l-13.201-15.778-.349-6.273 18.85-4.201-5.317-12.059-8.355-12.89-10.92-19.845-8.922.154-4.042 5.73 3.589 9.906-4.774 4.68-8.319.247-4.795-1.403 2.873-9.07 9.776-17.047 11.179-18.152 8.541-7.93-10.441-1.805-15.444 10.836-14.183-5.345-6.118-2.281-9.717 17.099-5.899-9.987-6.55-10.188 3.58-10.516 6.052-10.687 7.115-3.118-8.063-15.651-14.585.696-13.642-9.348-9.717-7.057-14.89-6.311-18.395-7.021-6.89-6.582z"/><path fill="#E1E1E1" stroke="#000" d="M1680.312 1302.138l-25.248 5.34-17.743-2.957-20.7-13.801-23.658-6.899-20.701-5.915-45.344-9.857-37.458 3.943-12.815-10.844-22.266-5.566-17.164-4.291-12.814 7.887-.985 43.372s-6.9 11.829-10.844 15.772c-3.942 3.942-14.786 22.672-14.786 22.672l-18.729 21.687-19.715 18.729-30.559 27.601-1.972 10.844s25.63 23.658 25.63 30.558c0 6.9 9.857 27.602 9.857 27.602l9.258 7.796 9.471 7.976 17.748 26.991 18.148 24.783 24.678 20.926 24.532 15.045 23.712 12.205 26.229 12.425 7.048 7.551 13.809 9.116 8.411-22.92 3.263-21.348 9.755-24.963 4.045-26.296-8.379-40.909-3.449-10.35 2.957-17.744 28.586-21.686 15.758-.446 38.383-2.926 14.975-2.423.873-14.906-8.593-15.377-10.137-18.139-.582-11.603 10.014-9.631 4.765-9.778 4.529-11.771 3.543-.682 9.275-26.522 15.389-10.271zm539.583-1081.935c-8.872 0-69.002.986-69.002.986h-33.516l-13.801 7.885-4.928 43.373v40.416l13.801 42.387v41.4l5.914 52.244.986 27.602-1.973 41.4-4.928 26.615-.986 25.631-.865 36.875 12.963 1.389s21.325 10.838 25.24 11.307c4.974.597 27.084 6.268 27.084 6.268l22.498 5.682 17.803 2.145s6.884 13.667 8.813 17.105l9.916 17.684c5.495 1.915 15.833 6.951 19.188 3.535 4.286-2.39 14.905-6.954 20.82-9.912 5.914-2.957 16.813-5.041 20.756-12.928 3.943-7.886 7.015-10.496 8.986-17.396 1.972-6.899 12.646-18.963 16.588-18.963 3.943 0 18.904 3.541 18.904 3.541l11.828-13.801 11.828-19.715-7.885-34.502-1.898-16.957 8.957-10.414s8.196-5.353 18.313-10.678c10.116-5.324 20.959-15.182 20.959-15.182l-6.711-15.625-13.004-30.705v-11.828l-32.529-7.887-3.943-19.715.225-33.676 3.719-40.254-5.916-6.9-18.729 6.9-21.469.953-22.889 1.018-22.674-.984-17.742-10.844-17.744-3.943 1.973-15.771 1.971-23.658v-50.273c-.001-.002 1.971-11.83-6.901-11.83z"/><path fill="#E1E1E1" stroke="#000" d="M2108.506 608.586l-12.815 42.388s-.985 28.586-2.957 35.486c-1.971 6.9-18.729 49.287-18.729 49.287l-24.644 40.416-16.758 29.572-23.658 47.315-14.786 14.786-16.581 32.011 1.254-.433 38.651 10.801 19.064 18.736 22.531 13.864 15.072 16.266 9.905 11.089 22.425 20.085 14.459 12.111s19.088 11.223 24.123 13.985c5.035 2.764 25.662 11.677 25.662 11.677s37.414 7.232 41.332 9.258c3.916 2.026 28.152 10.266 28.152 10.266l7.906.145 12.264 15.306 17.782-15.957 5.212-5.478 8.35 2.887 10.711 11.34 11.069-9.235 14.031 3.834 26.619 2.919 34.306 3.761 14.395 1.578-15.967-22.867 3.917-9.8-.478-18.021-4.311-16.278-5.275-27.05-6.049-26.26.669-21.379 10.602-24.71 6.773-23.378 3.729-16.051 9.304-3.172-12.384-9.45-11.057-13.402-14.573-19.127-4.666-14.519-4.801-15.165-12.327-29.469-4.663-11.638 4.771-21.869-10.961-14.703-6.584-17.896 4.435-19.745 7.044-23.481.152-22.227-20.494-1.951s-6.677 6.198-8.615 9.794c-1.939 3.596-11.239 21.449-11.239 21.449l-7.588 9.621-42.306 20.034-16.701-5.574-8.084-15.906-10.162-19.261-16.758-1.972-36.364-8.744-15.055-3.054-23.665-11.279-14.616-1.566z"/><path fill="#E1E1E1" stroke="#000" d="M1993.174 208.373l-18.729 13.801-6.9 22.672 5.914 21.688s-.987 14.786-1.973 18.729c-.985 3.943-12.814 23.658-12.814 23.658l3.943-31.543-7.885-16.758-24.645 13.799-7.887 22.674-9.857 30.557.986 24.645s-3.942 22.673-5.914 26.615c-1.972 3.943-8.871 19.715-8.871 19.715v-29.572l2.957-18.73-29.572 2.957v-8.871l26.615-9.857 8.871-19.715-14.787-3.943-26.613 14.787-27.602 15.771-13.801 12.814-3.943 19.715 17.744 14.787-2.957 16.758 3.943 26.615-2.959 15.771s-12.813 1.971-18.729 7.885c-5.914 5.915-22.672 14.787-22.672 14.787s-39.43 9.857-43.373 11.828c-3.942 1.972-39.43 16.758-39.43 16.758l-35.486 13.801-7.887 3.943 9.857 23.658 5.916 11.828s-.986 13.802.984 17.744c1.972 3.943 7.887 12.814 7.887 12.814l13.801 15.771s7.885 2.959 7.885 7.887c0 4.93-1.971 17.742-1.971 17.742s2.957 14.786 2.957 22.672c0 7.887 15.771 35.488 15.771 35.488l2.957 16.756 2.957 14.787 5.916 10.844 7.885 14.785 21.688-1.971h17.742l6.9 3.943-1.971 21.686v13.801l88.717 50.273s24.644 2.958 29.572 9.857c4.929 6.9 21.686 16.756 21.686 16.756l29.572 10.844 16.758-1.971 11.83 4.928 14.785-14.785 17.35-34.699 22.699-41.543 15.254-25.061 13.975-26.736 11.586-30.182 5.883-43.857 6.584-21.781 6.23-20.605 2.824-36.711 1.119-27.363 5.494-38.51.42-57.107-2.314-20.438-3.6-42.648v-30.56l-9.064-27.836-4.736-14.551h-10.844l-1.971-10.844v-36.473l3.943-21.686v-22.672h-23.658l-8.873 5.914s4.93 16.757 4.93 21.686.986 29.573.986 34.502v27.6h-14.787l-3.943-7.885.986-34.502 1.971-26.615-.984-19.715-9.857-9.857-18.73 1.973v31.543c0 5.915-1.971 34.502-1.971 34.502l-1.971 26.615-10.844 5.914-4.929-13.801 3.943-51.26.986-31.543-9.855-7.886z"/><path fill="#E1E1E1" stroke="#000" d="M1820.669 373.979l-11.829 8.871-24.644 11.829-30.559 19.715-14.786 3.943-11.829 11.829-36.472 5.914s-40.416 16.758-45.345 16.758h-36.473s-30.558.985-35.486 1.972c-4.929.985-54.216 6.9-54.216 6.9l-16.758-6.9-8.872-7.886-13.801 17.743-13.8 7.886-20.7-5.914-32.53-1.972-11.829-13.801 6.9-16.758-1.972-21.687-33.515-3.942-9.857 11.828-1.972 13.801-.986 11.829-9.857-6.9-12.814 6.9-10.843 4.929-8.872-.985-12.814-7.886-12.383-6.266 3.615 49.75a1256712.385 1256712.385 0 0 0 6.375 50.089l2.393 18.801 25.629-5.914 24.644 2.957s14.786 18.729 10.844 20.7c-3.943 1.972-8.872 5.915-5.915 9.857 2.957 3.943 6.9 22.673 6.9 26.615 0 3.943-.985 12.815 7.886 12.815 8.872 0 35.487-10.844 35.487-10.844s14.786.985 18.729.985c3.943 0 24.644-8.871 24.644-8.871l25.63-2.957 19.715-3.943 3.942 11.829s-5.914 20.7-3.942 24.644 19.715 22.672 19.715 22.672l18.729 10.844 18.729 15.771 4.929 5.914h8.872l6.9-20.7 6.899-5.914s19.715 8.871 23.658 10.843c3.942 1.972 23.658 12.814 23.658 12.814l2.957-28.586 12.814-7.887 2.957-20.7 1.972-20.7-12.814-19.715 2.957-16.758 21.687-16.758 18.138-8.083-7.44-16.911-4.783-11.479 34.524-14.303 37.367-15.43 29.502-10.216 24.781-6.382 41.401-22.672 2.958-15.771-3.943-26.616 2.957-16.757-17.743-14.783z"/><path fill="#E1E1E1" stroke="#000" d="M1681.087 545.302l-18.138 8.083-21.687 16.758-2.957 16.758 12.814 19.715-1.059 11.117-3.869 30.283-12.815 7.887-2.957 28.586-8.872 26.615-1.971 24.644s-18.729 4.929-18.729 11.829-4.929 21.687-4.929 21.687.985 1.972-3.943 7.886-1.971 11.829-1.971 11.829l4.928 12.814v14.786l-21.686 6.9s-7.887 18.729-6.9 24.644c.985 5.914 0 21.687.985 28.587.986 6.899 21.687 40.415 21.687 40.415s-1.972 13.801 0 17.743c1.972 3.943 14.786 9.857 14.786 9.857l17.743-.985 6.9-23.658 18.729-6.9 22.672-3.942 24.644 4.929 11.829 3.942s.985 3.943.985 8.872 6.9 16.758 5.915 26.615c-.986 9.857-4.929 14.786-4.929 14.786l29.572 5.914h32.529l41.401-11.828 30.558-27.602s32.53-19.715 36.473-19.715c3.943 0 61.116-14.786 61.116-14.786l27.601-12.814 18.089-3.254 8.526-16.461-28.586-2.957-29.572-10.844-18.409-13.157-16.853-10.341-15.997-3.117-35.542-20.14-21.165-11.994-22.111-12.529-9.898-5.609-4.929-39.43-39.43 1.972-13.801-25.63-5.915-31.544-12.542-24.759-6.187-33.399-5.915-25.63-6.717-7.677-7.083-8.095-8.872-30.559-3.546-7.097z"/><path fill="#E1E1E1" stroke="#000" d="M1985.633 884.297l-35.264 11.229-21.783 7.754-48.174 11.664-38.057 19.924-30.559 27.602-17.186 4.91-24.215 6.918.984 20.701 7.887 18.729 7.885 6.9 10.844 4.927 10.844 17.744v24.645l14.785 24.643.986 15.771-12.814 2.957-27.602 4.93-20.699 16.758-22.672 14.785 9.857 10.844 23.842 26.129 6.773-5.396 22.012-10.648 7.578-6.367 32.682-12.662 21.459-1.93 20.377 1.564 27.857 1.762 23.049 1.789-1.67-12.717 1.156-25.326 13.51-34.441.623-13.436s-2.626-20.785-3.818-26.445c-1.192-5.659-1.699-34.286-1.699-34.286l9.025-24.892-2.668-30.396 3.418-14.127 9.443-24.594 13.947-12.363 8.057-15.553z"/><path fill="#E1E1E1" stroke="#000" d="M1728.198 972.363l-19.904-3.98-23.658 15.771-28.586 3.943-11.829 22.672 7.886 23.658s17.743 22.672 20.7 26.615c2.957 3.942 6.9 15.771 6.9 15.771l18.729 28.587 25.629 19.715 16.758 22.672 11.246-7.334 20.756-15.005 11.371-9.205 30.696-5.643 9.719-2.243-9.074-29.254-6.697-11.162v-24.644l-10.844-17.743-10.843-4.929-7.886-6.9-7.886-18.729-.986-20.701h-32.529l-9.668-1.932z"/><path fill="#E1E1E1" stroke="#000" d="M1603.805 944.724l-16.757 9.857 1.971 19.715s10.844 10.844-1.971 17.744c-12.815 6.899-25.63 14.786-25.63 14.786s-11.829 12.814-11.829 17.743 3.943 21.687 3.943 21.687l8.871 30.558 23.658 13.801 15.772 2.957.985 19.715 13.801 23.658 23.657 3.942 2.958 9.857-14.787 11.829s5.915 8.872 6.9 13.801c.986 4.929 21.687 11.828 21.687 11.828s1.972 9.858-1.972 10.844-13.801 6.9-11.829 12.814c1.972 5.915 11.829 9.857 11.829 9.857l16.758-13.801s15.771-.985 15.771 2.958c0 3.942-3.775 5.268 6.9 17.743l8.877 12.233 32.566-29.991 29.98-18.547 8.606-7.555-26.207-28.729-7.493-8.243-16.758-22.672-25.629-19.715-7.339-11.202-11.391-17.385-6.311-14.905-12.609-16.371-8.681-11.11-7.887-23.658 11.829-22.672 11.875-1.638 16.712-2.306 23.658-15.771 4.788-13.563-4.4-22.044-2.359-14.666-11.829-3.942-24.644-4.929-22.672 3.942-18.729 6.9-4.25 14.573-2.65 9.085-17.739.988z"/><path fill="#E1E1E1" stroke="#000" d="M1409.613 610.557l6.9 17.743 5.914 21.687 11.829 20.701 18.729 15.771 7.886 27.601 5.914 29.572-2.957 32.53 4.929 18.729 2.958 32.53 3.942 14.786v18.729l7.886 5.915-.985 22.672 4.929 19.715.985 19.715 9.857 21.687 3.943 12.814 25.629 29.572 13.801 20.7 12.551 1.778 20.523-16.604 16.192-9.77-3.063-25.96-.859-8.589 16.758-9.857-15.462-12.473.676-15.128-9.342-15.655-12.623-27.636-.42-23.041 2.365-15.933 4.248-11.381 21.686-6.9v-14.786l-4.928-12.814 5.914-19.715 3.3-11.506 2.812-13.201 8.273-5.522 9.273-3.286 1.031-12.89.939-11.754 8.872-26.615-9.729-5.328-26.216-13.184-11.37-5.146-6.9 5.914-6.9 20.701-13.8-5.915-18.729-15.771-18.729-10.844-14.12-15.494-5.984-9.176 4.333-22.646-3.943-11.829-19.715 3.943-25.629 2.957-21.209 8.145-22.165-.258zm147.316 447.401s-28.04 4.07-32.969 4.07-51.259 0-56.188-.985c-4.929-.986-32.529 1.971-32.529 1.971l-10.844 7.887-2.957 25.629 1.972 20.701s-4.929 9.857-6.9 15.771-11.829 23.658-11.829 23.658l-.985 17.743 11.829 15.771 8.871 13.801 2.957 16.758 9.858 30.558 39.43 9.857 12.814 10.844 37.458-3.943 23.818 5.178c5.647 1.228 33.895 8.213 33.895 8.213l31.99 9.281 20.7 13.801 23.244.828 19.747-3.212-2.899-6.346 6.509-8.263 11.979-8.645 24.686 6.84 15.818-1.279 9.311-11.156-3.645-16.666-.934-6.798-5.465-.524-15.844-6.256-1.916-.349-14.104 3.646-6.88-14.885-9.306-8.607-.768-12.964-15.032-1.968-16.758 13.801-9.913-3.094-2.072-9.367 13.957-21.055-16.622-7.132-6.406-8.595-5.558-9.902 14.786-11.829-2.957-9.857-10.87-1.812-12.788-2.132-5.792-9.929-8.009-13.729-.985-19.715-15.771-2.957-15.567-9.082-8.091-4.719-5.476-18.855z"/><path fill="#E1E1E1" stroke="#000" d="M1304.139 554.37l6.9 18.729 5.914 34.501 1.972 13.801s7.887 3.942-3.942 11.829c-11.829 7.886-7.886 7.886-7.886 7.886l8.871 14.786-12.814 13.8s-4.929 12.815-2.957 16.758c1.972 3.943 10.843 22.672 10.843 22.672l7.886 18.729.986 18.729v18.729l-9.857 17.743 2.957 20.701v21.687s-2.957 9.857 1.972 10.843c4.929.986 27.601 4.929 27.601 4.929l29.572-2.957 20.7-5.914 7.886-7.887 22.673 9.857 17.743 13.801 18.729 5.914 15.771 6.9v-18.729l-5.203-28.651-1.697-18.665-4.929-18.729 2.957-32.53-5.914-29.572-4.762-16.664-3.124-10.937-18.729-15.771-11.829-20.701-5.914-21.687-6.9-17.743-24.816 8.764-12.802 1.881-5.768-8.884-4.706-25.51-3.075-7.59 4.654-5.872-1.812-12.358-6.877-9.575-24.644-2.957-25.63 5.914z"/><path fill="#E1E1E1" stroke="#000" d="M1475.658 860.936l-15.771-6.9-18.729-5.914-10.236-7.962-7.507-5.839-22.673-9.857-7.886 7.887-38.268 7.671-21.904-.532-19.003-3.775-19.399 16.352-18.729-4.929h-23.657l-9.857 7.886-10.844-11.829-9.857-10.843-18.729 3.942-13.801 11.829-1.972 21.687s18.729 27.601 23.658 32.529 18.729 28.587 18.729 28.587l21.687 32.529 19.715 23.658 16.758 28.586 14.786 19.715v34.501l23.658-2.957 17.743-13.801 28.587-.985 29.572.985 23.657 3.943 9.858 5.914 12.794-1.22 27.604-.25 23.659.392 21.7.092 18.766-1.7 17.162-2.369-3.944-14.091 1.27-28.362-12.551-1.777-13.801-20.701-14.018-16.174-11.611-13.398-8.129-22.023-5.672-12.478-.985-19.715-4.929-19.715.985-22.672-7.886-5.917z"/><path fill="#E1E1E1" stroke="#000" d="M1304.139 554.37s-19.991 3.468-23.919 3.713l-35.226 2.202-17.859 15.308-9.741 8.35-5.067 21.958-3.805 16.486 3.943 25.629-17.743 14.787-20.077 1.745-25.268 2.197-29.62.604-18.681.381 6.899 28.587 15.772 22.672 16.758 25.63 7.886 27.601 13.801 22.672 13.8 24.644 7.886 17.744 18.729-.986 18.729-3.942 13.131 14.414 7.569 8.258s9.857-7.886 33.516-7.886c6.455 0 18.729 4.929 18.729 4.929l19.4-16.352-.671-10.264-2.957-42.387 9.857-31.544-.986-23.658-5.919-14.058-10.45-22.484-2.207-12.29 2.805-9.327 12.814-13.8-8.871-14.786 11.828-19.715-2.792-18.589-5.094-29.713-6.899-18.73z"/><path fill="#E1E1E1" stroke="#000" d="M1101.075 667.731l-27.601 3.942h-20.7l-36.402 2.146-29.643 1.797-21.687 7.886-7.886 10.843-25.329 47.334-6.929 11.969-14.594 23.497-12.293 18.732-7.886 17.743 18.729 24.644 6.9 12.814 32.529 14.786 19.715 6.9s14.786 2.957 21.687 3.943c6.9.985 18.729 9.857 18.729 9.857l-2.957 12.814-3.943 17.743 5.915 26.615 2.957 27.601v29.572l-2.957 25.63 11.828 22.672 10.844 19.715s15.771 12.814 21.687 12.814c5.914 0 33.515-4.929 33.515-4.929l32.529-12.814 10.844-8.872 20.7-15.771 17.743-19.715 43.373-21.687 22.672-14.786 23.157-13.219-5.413-6.496-17.744-26.615-16.608-26.387-15.563-20.362-14.159-20.281 1.059-11.644.913-10.043 13.801-11.829-18.729.986-7.886-17.744-8.657-15.458-9.712-16.69-9.231-15.167-5.097-17.837-2.79-9.764-14.5-22.177-7.06-10.355-10.97-15.77-6.9-28.583z"/><path fill="#E1E1E1" stroke="#000" d="M890.127 813.621l-14.786 19.715h-11.829l-11.714-6.136-24.759-12.594-25.63 7.886s-9.857 8.872-13.8 16.758c-3.943 7.887-5.915 22.673-5.915 26.615 0 3.943 1.972 17.743 1.972 17.743l-21.687 11.829-17.743 18.729-18.729 27.601-10.844 17.743 7.886 18.729-11.828 5.914 5.914 17.744.985 14.786s-15.771 14.786-6.899 15.771c8.871.985 40.431.981 40.431.981l20.685 19.719 7.887 10.844-1.972 17.743 15.771 14.786.986 15.772-15.772 13.8 2.693 24.262 16.451 18.798 10.428 15.1 17.744 9.857h6.899l8.872 23.658 5.914 20.7 1.972 25.629-1.972 20.701 17.744 20.7.985 22.673v18.729l-22.672 12.814s-3.943 17.744 1.972 19.715c5.914 1.972 19.715 14.787 19.715 14.787l-3.943 12.814-.985 17.743 5.914 16.758 2.957 13.8 7.886 12.814-11.828 11.829s-6.9 6.9-1.972 6.9 46.33-1.972 50.272-1.972c3.943 0 28.587 2.957 36.473 2.957s38.444-4.929 38.444-4.929l4.929-17.743-1.972-31.544-.985-33.515-4.929-12.814-2.958-13.801 5.915-18.729 18.729-4.929 20.7 2.957 19.715-6.9-.985-18.729-3.943-10.844s-11.829-4.928-9.857-8.871 7.886-24.644 7.886-24.644l-5.915-21.687 9.858-22.672-9.858-11.829-6.899-24.644 2.957-34.501 3.942-30.558 1.972-35.487-2.957-12.814-3.942-19.715-11.688-21.332-10.985-21.055 2.958-25.63V971.34l-2.958-27.601-5.914-26.615 3.363-15.134 3.537-15.424-12.038-7.492L968 872.765l-19.715-6.9-22.577-10.263-9.952-4.523-6.9-12.814-18.729-24.644zm412.04 256.293l-1.971 21.687 3.942 20.701-18.729 3.942-10.843.986-16.758 17.743s1.972 11.829 1.972 19.715-4.929 30.558-4.929 30.558l-30.558 24.644-6.9 18.729-30.559 8.871-5.914 17.744s-16.758 10.843-13.801 18.729c2.957 7.887 4.929 14.787 4.929 14.787l-16.757 4.928-19.715 2.958-9.857 14.786s8.871 27.601 16.757 30.558 18.729 6.9 18.729 11.829-1.972 17.743-1.972 17.743l3.943 17.743 11.828 20.701-9.857 21.687s-1.972 15.771 0 19.715c1.972 3.942 1.972 24.644 4.929 28.586 2.958 3.943-.985 22.673-.985 22.673l12.814 8.871 19.715 2.957 13.801-18.729 41.401-24.644 25.629-26.615 44.358-24.644 1.972-10.844 23.869-21.559c4.675-4.223 45.133-46.457 45.133-46.457l16.219-24.278 9.411-14.166.359-15.809.402-17.734.224-9.83 12.814-7.886-3.261-10.109-6.597-20.449-2.957-16.757-8.871-13.801-11.829-15.771.985-17.743 14.45-30.275 4.279-9.155-1.972-20.7 2.957-25.629 10.844-7.887-9.858-5.914-23.657-3.943-29.572-.985-28.587.985-17.743 13.801-23.656 2.956z"/><path fill="#E1E1E1" stroke="#000" d="M1256.322 969.95l-20.292 11.583-25.537 16.422-28.783 14.392-14.59 7.295s8.088-8.986 0 0l-17.743 19.715-31.544 24.643-12.618 4.971-19.911 7.844-14.857 2.516-15.313 2.18-13.938-4.535-11.093-8.046 6.899 32.529-1.438 25.878-2.225 22.715-3.203 28.552-2.006 23.401 3.695 13.199 3.204 11.445 9.858 11.828-9.858 22.672 3.254 11.928 2.661 9.759s16.758 0 20.7 1.972c3.943 1.972 13.801 4.929 16.758 8.872 2.957 3.942 3.943 8.871 7.886 10.843 3.943 1.972 18.729 3.943 18.729 3.943l8.872-12.814 11.829 15.771 9.857-14.786 19.715-2.957 16.757-4.929-4.847-14.568 2.951-9.568 10.768-9.379 5.914-17.743 30.559-8.872 6.9-18.729 17.86-14.404 12.697-10.24 2.957-50.272 16.758-17.743 29.572-4.929-3.943-20.701 1.972-21.687v-34.501l-8.162-10.882-6.624-8.833-9.224-15.735-7.534-12.851-14.299-17.164zm-87.23 532.706l-13.8 16.757-18.729 3.943-26.615 12.814-18.73 11.83s-21.686 10.843-26.614 16.758c-4.929 5.914-12.815 37.458-12.815 37.458s-7.886 8.872-7.886 13.801 13.801 20.7 13.801 20.7l14.786 22.672 13.801 15.772 12.814 22.672-15.772 6.9 2.958 28.586-2.958 12.815-18.729 9.857-7.886 31.543-2.958 18.729 2.958 17.743s13.8 13.801 17.743 14.786c3.942.986 55.201 4.929 55.201 4.929l27.602-.985 19.715 1.972 17.743 18.729 17.743 8.872 23.658 3.943 35.486-5.915 26.615 3.943 25.63 6.9-4.25-27.012-7.563-22.976-7.848-22.589-9.587-26.232-6.258-23.187 1.99-26.853 15.105-21.74 30.238-46.276 18.729-18.729 13.399-22.22 15.129-25.85 12.275-21.932-9.291-5.042-8.576-9.149-2.235-11.424-8.872-8.872-2.957-23.658-.664-26.573-.322-12.856-5.555-12.768-4.057-12.546-5.065-11.032-8.937-10.111-11.873-11.702-18.078 10.044-35.474 24.147-16.436 17.067-30.362 18.073-24.84 25.3-9.352-1.402-10.363-1.555-12.812-8.869z"/><path fill="#E1E1E1" stroke="#000" d="M1169.092 1502.656l-.818-28.62-3.3-23.049.176-19.305 9.857-21.687-11.829-20.701-3.943-17.743 1.972-17.743-7.673-7.302-16.112-9.235-7.208-13.838-4.493-12.012-11.829-15.772-8.872 12.815-10.295-1.677-9.611-3.001-17.24-16.358-7.809-3.168-19.118-1.426-4.751 15.829-2.174 6.471 8.896 11.216 3.943 10.843.985 18.729-19.715 6.9-20.701-2.958-18.729 4.93-5.915 18.729 2.958 13.801 5.39 28.486.777 21.894 1.719 27.493-4.929 17.744-22.878 3.377-27.502.798-32.412-1.935-20.746.882-10.823.454-9.843.353.986 18.743-3.943 12.814-5.915 25.63-2.957 13.8 26.615 19.715-21.687 14.786 10.844 23.658 2.957 13.801 5.914 23.657-2.957 12.814 3.943 29.572 8.871 17.744-2.957 17.743-15.771 23.658 16.758 19.715 29.572 6.899 14.786 12.815 6.899 22.672-7.886 21.687-16.758 9.857-5.914 33.516 7.886 20.7 8.872 26.615s-1.972 14.786-5.915 17.743c-3.942 2.957-12.814 2.957-12.814 6.9 0 3.942 7.886 25.629 7.886 25.629l-13.8 14.786-.986 25.63-15.771 2.957-2.957 18.729 11.828 18.729-11.828 8.872-27.602-2.958-4.929 13.801 26.615 11.829 30.559 3.942s11.828-4.929 20.7-2.957 37.458 1.972 37.458 1.972l19.715-5.914 9.857-4.93 12.815 14.787 15.771 5.914s14.786 9.857 18.729 9.857c3.942 0 18.729 5.914 18.729 5.914l1.972-12.814.986-23.658 3.942-11.828 8.872-20.701 18.729-16.758 6.9-20.7 9.857-13.801-12.814-23.657 1.972-19.715 9.857-12.814 13.8-7.887-6.899-27.601-6.9-14.786h-10.843l-16.758-18.729-9.486-10.044-5.561-10.419-9.597-17.98 1.972-12.815-2.957-17.743 2.957-18.729 3.826-15.309 4.06-16.235 18.729-9.857 2.957-12.814-2.957-28.587 15.771-6.9-15.08-22.149-22.813-30.752-3.509-8.215-15.882-20.297 7.702-12.984 6.868-17.876 7.687-22.506 37.117-21.354 8.752-5.528 26.615-12.814 18.729-3.943 13.804-16.758z"/><path fill="#E1E1E1" stroke="#000" d="M872.383 2092.131l3.943 13.8s11.829 12.815 16.758 15.772 0 10.843 0 15.771-8.872 17.744-8.872 17.744l28.587 4.928s-11.829 4.93-.986 9.857c10.844 4.93 11.829 23.658 11.829 23.658l13.801 7.887 1.972 11.828-18.729 5.915 2.957 13.8 19.715 5.915 3.943 5.914s16.758-14.786 19.715-10.843c2.957 3.942-7.886 19.715-7.886 19.715l-1.972 7.886s-4.929 8.872-2.957 15.772c1.971 6.899 0 16.757 0 16.757l-5.915 5.915 10.844 7.886-1.972 5.915 14.786.985v6.9c0 4.929-.985 18.729-.985 18.729l12.814 6.9 13.8 9.857 23.658 2.957 20.7-8.871s17.744 1.972 24.645 2.957c6.899.985 25.629 1.972 29.572 1.972 3.942 0 9.857-5.915 9.857-5.915l6.899-9.857 10.844 10.844s19.715-.986 24.644-.986 48.301-.985 48.301-.985 34.501-3.943 39.43-3.943h33.516l13.801-8.871-1.479-31.051-6.408-15.279 17.977-39.078-2.876-6.947-10.531-10.123-11.968-21.203-7.645-12.835-2.627-8.145-1.342-9.383 6.266-19.302 3.875-7.538-5.915-5.422-5.914-27.601 8.379-10.351 16.373-10.848 6.143-32.749 5.104-24.994 4.726-23.617 8.348-14.286 10.26-14.151 19.035-15.388 15.207-8.508 17.626-12.354 6.104-21.031-7.297-15.805-10.447-13.768-18.936-8.033-13.594-5.768 1.972-9.857-25.629-6.9-26.615-3.942-14.866 2.478-20.621 3.437-23.657-3.942-17.744-8.872-17.743-18.729-19.715-1.972-27.601.986-34.176-2.777-21.312-.642-9.854-9.083-7.604-7.213-1.972 12.814 15.158 28.4 17.349 18.832 8.895 9.94h10.844l6.899 14.787 6.9 27.601-13.801 7.886s-9.838 12.619-10.833 22.574 11.819 33.613 11.819 33.613l-9.857 13.8-6.056 22.395-10.238 6.711-9.335 8.353-12.815 32.53-.985 23.657-1.972 12.815-17.16-5.733-10.41-3.956-25.66-11.997-12.814-14.786-9.857 4.929-19.715 5.914-14.724-.227-21.301-1.471-22.135 2.684-17.452-2.252-13.108-1.692zm-5.914-650.591l-18.729 1.972-20.7-.986h-34.501l-46.33 2.957h-43.373l-14.786 3.943-5.914 6.9-30.559-.986-24.644-.985h-11.828c-4.93 0-20.701.985-20.701.985l3.943 14.786 16.758 2.958 3.942 13.8h14.786l14.786 2.957 8.872 11.829 8.871 10.843-1.971 9.857 3.942 11.829s-9.857 2.957-8.871 7.886c.985 4.929 2.957 5.915 2.957 14.786 0 8.872-7.886 15.772-6.9 19.715.985 3.943 24.644 5.915 24.644 5.915l11.829 12.814s8.871 8.872 10.843 12.814c1.972 3.943-2.957 14.786-2.957 18.729s-7.886 8.872-7.886 8.872l-6.9 24.644v25.629l9.857 15.771 13.801 12.815 25.629 4.929s10.844 9.857 10.844 13.8c0 3.943 10.843 20.701 10.843 20.701s-2.957 7.886-3.943 11.828c-.985 3.943 18.729 19.715 14.786 22.673-3.942 2.957-8.871 6.899-10.843 11.828-1.972 4.93-16.758 9.857-16.758 9.857l-8.871 11.829 15.771 6.9s14.786 0 9.857 2.957 1.972 7.886-2.957 8.872c-4.929.985-14.786 19.715-14.786 19.715s3.942 18.729 3.942 23.658-.985 12.814-1.971 16.757c-.986 3.943-12.815 7.887-13.801 11.829-.985 3.943 3.943 23.658 3.943 23.658l.985 11.829 27.601 2.957 22.672 1.972s4.93 0 4.93 10.843 13.8 21.687 13.8 21.687l19.715.985 16.758 3.943-12.814 27.601s-1.972 16.758-3.943 20.701c-1.972 3.942-9.857 18.729-9.857 18.729l10.844 12.814 14.786 2.958 9.857 6.899 4.929-13.8 27.601 2.957 11.829-8.871-11.829-18.729 2.957-18.729 15.771-2.957.986-25.629 13.801-14.786-7.887-25.63 1.511-2.367 12.506-5.861 4.713-16.415-5.521-16.561-11.237-30.755 4.079-23.112 1.836-10.403 16.757-9.857 7.887-21.687-4.012-13.179-2.889-9.493-14.786-12.814-11.717-2.734-17.855-4.166-16.758-19.715 15.771-23.658 2.957-17.743-8.871-17.743-3.943-29.572 2.957-12.814-5.957-23.859-7.846-24.358-5.912-12.898 21.687-14.786-26.615-19.715 6.413-28.774 6.402-23.47-3.105-18.919-1.286-2.241 16.22-16.299-7.886-12.814-2.958-13.802z"/><path fill="#E1E1E1" stroke="#000" d="M594.403 1455.34l-18.729 2.957h-62.103l-29.572 6.9-52.244-3.942-31.544-1.972 2.957-26.615-2.957-30.559 8.872-24.643 8.871-22.673 4.929-13.8 23.658-3.943 2.957-13.801 6.9-23.657 5.914-23.658 5.915-22.672-6.9-31.544-4.929-27.601 11.829-25.63-13.801-34.501-16.758 4.929-21.687 13.801H391.34l-25.629-13.801 19.715-20.7 28.587-13.801 40.415-21.687 12.623-34.557 12.622-25.326 16.156-23.905 24.587-13.946 21.743-11.683 5.914-23.658 28.587-7.886 22.92-14.6 32.084-12.719 32.587-14.139 22.813-13.744 11.829-22.673-1.972-17.743-12.814-14.786 8.871-11.829 16.758-4.929 28.587 2.957 11.829-2.957 25.629 1.972 30.558-4.929h10.844l9.857 2.957-25.63 7.886-14.457 18.176-4.72 19.162 1.434 23.778-21.687 11.829-17.743 18.729-10.927 16.103-18.646 29.241 7.886 18.729-11.828 5.914 5.914 17.744.985 14.785-9.16 11.498.094 3.407 11.997 1.428 30.601.421 17.61 15.172L779.724 1064l-1.972 17.743 15.771 14.786.986 15.771-15.772 13.801 2.957 24.644 10.035 9.507 16.58 24.009 9.793 5.44 7.951 4.417h6.899l14.786 44.358.963 12.513 1.009 13.116-1.972 20.701 17.744 20.7.805 18.522.181 22.879-22.672 12.814-1.243 9.331 1.174 8.55 21.756 16.62-3.943 12.814-.985 17.744 5.914 16.757-18.729 1.972-33.515-.985-38.502 1.073-29.515 1.884h-43.373l-14.786 3.943-5.914 6.899-29.669-.957-23.644-.938-21.449.188-12.97.724zM351.91 211.331l9.847-14.072 9.758-13.244 17.426-19.517 7.667-3.484 14.638 12.546 21.608-5.576-3.485-9.758L414.73 140.8l9.759-7.668 28.578-18.122 8.364-4.88 16.031 18.123 31.366 37.64s29.275 34.852 32.063 36.942 36.942 19.517 36.942 19.517l25.79 15.335s40.427 11.152 43.912 12.546c3.485 1.395 43.216 18.123 48.095 18.82 4.879.696 43.216 3.484 48.095 3.484 4.88 0 59.944 10.456 59.944 10.456l41.125 2.788 23.698-10.456 28.578 9.062s24.396 15.335 28.578 15.335c4.183 0 29.275-1.395 29.275-1.395l14.638-12.546 16.729-32.761 15.334-6.97.697 17.426s-9.062 8.364-9.062 11.152 0 11.849-1.394 16.031c-1.395 4.183-4.879 16.031-4.879 16.031l19.517 15.335 23.002 2.091 27.184-4.182 9.759-10.456 28.578-2.091 4.182-11.85h20.214s17.426-4.879 17.426-7.667 4.182-25.093 4.182-25.093l13.244-11.85 4.182-11.85 15.335 10.455s4.182 8.365 4.182 13.244 5.576 11.152 5.576 11.152h10.456s-.697 13.94 2.091 15.335c2.788 1.394 13.244 3.484 13.244 3.484l13.94-13.243 6.272 19.517 10.456 18.819 20.214 9.759 8.364 2.091s-5.576 13.94-3.485 19.517 13.94 25.79 13.94 28.578-.697 20.214-.697 25.79 5.576 13.244 5.576 13.244l7.834 18.908 4.985 60.518 2.165 17.011 2.84 22.311 1.533 12.048c.859 6.753-14.479 9.296-14.479 9.296l-34.849 2.812-8.957.561-27.601 23.657-2.182 9.456-4.276 18.53-1.218 18.232 2.747 17.854-7.916 6.598-21.102 9.169-34.07 2.963-29.62.604-33.198 2.455-51.388 2.907-48.441 2.905-15.042 5.47-6.645 2.416-1.479-22.183-.493-7.39-5.914-4.929-19.492-2.635-23.226-4.072-26.275-5.052-34.784-9.96-26.204-9.235-21.847-6.896-38.421-11.438-20.658-9.451-19.008-8.696-13.563-5.511-11.319-9.234-12.842-10.476-13.298-10.848-20.333-8.261-16.819-9.27-21.924-13.287-11.589-7.577-19.696-16.927-10.185-8.753-19.901-13.061-11.642-7.64-8.362-7.412-24.24-21.485-10.771-9.547-17.397-21.889-14.294-17.984-12.65-15.917-10.417-14.086-11.348-15.343-5.63-7.613-15.68-20.35-9.933-12.892-15.068-23.103-10.291-17.45-8.953-15.181-11.324-19.203-5.86-9.932zm2513.647-65.06l-31.543 6.9-23.658 8.873-23.658 15.771-30.559 13.801-10.842 18.729-11.83 11.828-6.9-7.885-18.729 1.971-56.188-2.957-35.486 13.801-25.629 1.971-14.787 6.9-29.572-7.887-9.857-8.871h-19.715l-37.459-.986-41.4 6.9-1.971 14.787-9.857 12.814-5.916 5.914h-40.414l-13.801 17.744-3.943-11.83-6.9-21.686h-40.416l-14.785-6.9-11.83-.986-17.742 3.943-10.844 5.914-5.914 6.9 11.828 6.9 14.787-.986-2.957 17.744-7.887 4.93-10.844 5.914-9.857 5.914-6.16 31.914 17.496 10.473 4.898.09 25.094.398 14.584-.52 19.689-1.102 6.033-1.51 15.203-5.711 6.959 8.99-1.127 12.219-1.469 18.297-1.18 18.629-.516 25.135 3.77 17.973 32.877 8.061.176 13.572 20.236 46.33-6.254 5.766s-9.45 6.972-11.313 8.17c-1.862 1.199-17.402 9.494-17.402 9.494l-5.348 3.996-8.26 8.672.785 8.748.939 8.383 2.971 13.584 2.979 13.035 1.762 7.883-12.178 20.586-11.48 13.451-.152 22.229-3.777 13.115-4.936 18.068-2.592 12.043 2.543 5.566 3.693 11.631 11.135 14.529-4.072 22.043 2.256 6.85 6.377 15.637 7.66 18.969 4.801 15.34 4.84 13.996 10.742 14.219 14.189 17.439 11.688 8.752 22.26-5.795 38.355-13.078 19.467-6.639 11.682-3.982 17.816-6.074 11.178 4.9 9.623-15.313 4.777-7.6 10.094-16.061 7.658-9.969 11.301-7.494 4.643.631 1.404 5.176.203 6.855 2.986 16.012 20.783 1.063 11.15.57 1.135 6.902 2.295 15.322 2.063 16.33 1.146 12.326-.252 17.717 5.123 5.123 61.938 1.408 1.6-8.166 12.771 3.266 4.791-42.463 20.758 1.635-1.596-9.803 36.721 1.635 11.178-17.967 12.201 1.703 22.928 3.197 31.896-10.736 17.6-3.965 15.967-4.898 8.061-24.887 2.957-20.701-3.943-22.672 3.943-4.93 9.857-11.828-9.857-21.686-4.93-19.715-6.9-23.658-5.914-14.787 3.943-40.416 3.943-25.629-2.957-17.742 17.742-.986v-7.887s-2.957-4.927-2.957-10.842c0-5.914 2.957-21.688 2.957-25.631 0-3.942 2.957-29.572 2.957-29.572l-4.928-22.672-10.844-46.33-4.928-26.615-6.9-22.672 8.871-29.572-6.9-24.643-1.971-29.572 6.9-33.516-.986-15.771s-4.93-20.701-4.93-24.645c0-3.942-5.914-17.742-5.914-17.742l6.901-15.77z"/></svg>